<svg width="24" height="25" viewBox="0 0 24 25" fill="none" xmlns="http://www.w3.org/2000/svg">
<path fill-rule="evenodd" clip-rule="evenodd" d="M5.11637 5.61613C5.53814 5.19436 6.22196 5.19436 6.64372 5.61613L12 10.9725L17.3564 5.61613C17.7781 5.19436 18.462 5.19436 18.8837 5.61613C19.3055 6.0379 19.3055 6.72171 18.8837 7.14348L13.5274 12.4998L18.8837 17.8561C19.3055 18.2779 19.3055 18.9617 18.8837 19.3835C18.462 19.8052 17.7781 19.8052 17.3564 19.3835L12 14.0272L6.64372 19.3835C6.22196 19.8052 5.53814 19.8052 5.11637 19.3835C4.69461 18.9617 4.69461 18.2779 5.11637 17.8561L10.4727 12.4998L5.11637 7.14348C4.69461 6.72171 4.69461 6.0379 5.11637 5.61613Z" />
</svg>
