<svg width="24" height="25" viewBox="0 0 24 25" fill="none" xmlns="http://www.w3.org/2000/svg">
<path fill-rule="evenodd" clip-rule="evenodd" d="M14.1293 2.8999H5.3999V20.4746H12.3942L11.9928 22.8829L15.5526 21.8658L22.915 14.6185L22.9407 14.5861C23.6806 13.6543 23.4404 12.5376 22.8273 11.882C22.5202 11.5536 22.0953 11.3092 21.6092 11.2572C21.1083 11.2037 20.598 11.3613 20.1633 11.7422L20.1526 11.7516L18.8063 13.0358V7.57689L14.1293 2.8999ZM17.4544 14.3253V8.19486H13.1733V4.25181H6.75181V19.1227H12.6195L12.6563 18.9019L17.4544 14.3253ZM16.1605 6.84295L14.5252 5.20774V6.84295H16.1605ZM13.9157 19.5689L21.0637 12.7508C21.226 12.6123 21.3625 12.5905 21.4656 12.6015C21.5854 12.6143 21.7225 12.6799 21.84 12.8054C22.0691 13.0505 22.1324 13.404 21.9036 13.7171L14.8498 20.6606L13.6779 20.9955L13.9157 19.5689Z" />
</svg>
