<svg width="28" height="28" viewBox="0 0 28 28" fill="none" xmlns="http://www.w3.org/2000/svg">
<path d="M25.3644 14.3779L14.8656 2.70277C14.4235 2.21008 13.5742 2.21008 13.1321 2.70277L2.63328 14.3779C2.48216 14.5456 2.38297 14.7535 2.34776 14.9766C2.31255 15.1996 2.34285 15.428 2.43497 15.6341C2.62161 16.0556 3.03923 16.3265 3.50001 16.3265H5.83309V24.4991C5.83309 24.8087 5.95599 25.1057 6.17476 25.3246C6.39352 25.5436 6.69024 25.6666 6.99962 25.6666H10.4992C10.8086 25.6666 11.1053 25.5436 11.3241 25.3246C11.5429 25.1057 11.6658 24.8087 11.6658 24.4991V19.829H16.3319V24.4991C16.3319 24.8087 16.4548 25.1057 16.6736 25.3246C16.8924 25.5436 17.1891 25.6666 17.4984 25.6666H20.9981C21.3074 25.6666 21.6042 25.5436 21.8229 25.3246C22.0417 25.1057 22.1646 24.8087 22.1646 24.4991V16.3265H24.4977C24.7236 16.3274 24.9449 16.2626 25.1346 16.1398C25.3244 16.0171 25.4743 15.8418 25.5662 15.6352C25.6581 15.4286 25.6879 15.1998 25.6521 14.9765C25.6163 14.7533 25.5163 14.5453 25.3644 14.3779Z" />
</svg>
