<svg width="28" height="28" viewBox="0 0 28 28" fill="none" xmlns="http://www.w3.org/2000/svg">
<path fill-rule="evenodd" clip-rule="evenodd" d="M19.2505 4.66677C19.2505 6.38499 17.8576 7.77789 16.1394 7.77789C14.4212 7.77789 13.0283 6.38499 13.0283 4.66677C13.0283 2.94856 14.4212 1.55566 16.1394 1.55566C17.8576 1.55566 19.2505 2.94856 19.2505 4.66677ZM19.0363 20.2834C19.1379 20.3033 19.2345 20.3434 19.3205 20.4012C19.4725 20.5135 19.5784 20.6772 19.6184 20.8618C19.6585 21.0465 19.63 21.2394 19.5383 21.4046C18.4727 23.0301 16.4505 25.099 14.5138 25.8768C13.7496 26.1854 12.9346 26.3489 12.1105 26.359C11.2629 26.4111 10.4215 26.1844 9.71493 25.7134C9.33845 25.4681 9.04777 25.1116 8.88329 24.6934C8.71881 24.2752 8.6887 23.8162 8.79715 23.3801C8.84979 23.1088 9.74141 20.5377 10.6127 18.0251C11.4151 15.7114 12.2002 13.4474 12.2971 13.0746C12.4732 12.6519 12.4925 12.1802 12.3516 11.7446C12.2862 11.6298 12.1889 11.5364 12.0716 11.4757C11.9543 11.415 11.822 11.3895 11.6905 11.4023C11.4338 11.4257 9.10048 11.729 9.10048 11.729C8.99834 11.7356 8.8959 11.7221 8.79899 11.6891C8.70209 11.6562 8.61262 11.6045 8.5357 11.5369C8.45879 11.4694 8.39592 11.3874 8.3507 11.2956C8.30548 11.2037 8.27879 11.1039 8.27215 11.0018C8.26551 10.8996 8.27905 10.7972 8.31201 10.7003C8.34496 10.6034 8.39668 10.5139 8.46421 10.437C8.53174 10.3601 8.61375 10.2972 8.70558 10.252C8.7974 10.2068 8.89723 10.1801 8.99937 10.1734C9.04246 10.1704 10.0199 10.0455 11.2225 9.8918C13.0586 9.65718 15.4197 9.35548 15.7816 9.31789C17.9827 8.96789 18.1927 10.4223 17.7105 11.9001C17.3838 12.9112 14.4049 21.7468 14.2338 22.2446L13.8216 23.4657C13.8169 23.4857 13.8115 23.508 13.8055 23.5322C13.7424 23.7903 13.6278 24.2586 13.8838 24.3368C14.2774 24.4881 15.1937 23.7926 15.4793 23.5759C15.4872 23.5699 15.4947 23.5642 15.5016 23.559C16.5586 22.7296 17.4797 21.7403 18.2316 20.6268C18.2875 20.5396 18.3603 20.4644 18.4456 20.4057C18.531 20.347 18.6272 20.306 18.7286 20.285C18.83 20.2639 18.9346 20.2634 19.0363 20.2834Z" />
</svg>
