<svg width="97" height="42" viewBox="0 0 97 42" fill="none" xmlns="http://www.w3.org/2000/svg">
<path d="M69.2921 3.73333V5.27333H82.513C83.4038 5.27333 84.7165 5.27333 85.6072 6.16C86.498 7.04667 86.498 8.35333 86.498 9.24V22.3533C86.498 23.24 86.498 24.5467 85.6072 25.4333C84.7165 26.32 83.4038 26.32 82.513 26.32H76.137C75.0587 26.32 73.6053 26.32 73.0427 25.1067C72.4801 23.8933 73.2771 22.82 73.9335 21.9333L82.513 10.5H69.2921L64.0413 17.5C63.1505 18.6667 62.4004 19.6933 62.4004 21C62.4004 22.3067 63.1036 23.24 64.0413 24.5L65.354 26.2267C66.6667 27.9533 67.9794 29.7267 69.7609 30.6133C71.5425 31.5 73.6053 31.5 76.4652 31.5H82.1848C85.4666 31.5 90.4361 31.5 93.7179 28.2333C96.9997 24.9667 96.9997 20.16 96.9997 18.3867V13.1133C96.9997 11.34 96.9997 6.53333 93.7179 3.26667C90.4361 0 85.4666 0 82.1848 0H73.0427C72.152 0 71.0737 0 70.1829 0.886667C69.2921 1.72667 69.2921 2.84667 69.2921 3.73333Z" />
<path d="M52.3678 10.5H65.5418L49.7424 31.5H36.5215L52.3678 10.5Z" />
<path d="M0 14.2333C0 13.3467 0 12.2733 0.890768 11.3867C1.78154 10.5 2.85984 10.5 3.7506 10.5H25.8323C28.6921 10.5 30.8018 10.5 32.5365 11.3867C34.318 12.2733 35.6307 14 36.9435 15.7733L38.2562 17.5467C39.1938 18.8067 39.897 19.74 39.897 21.0467C39.897 22.3533 39.1469 23.38 38.2562 24.5467L32.9584 31.5467H19.7844L28.3639 20.16C29.0203 19.2733 29.8173 18.2 29.2547 16.9867C28.6921 15.7733 27.2856 15.7733 26.1605 15.7733H15.8463V42H5.29773V15.7267H0V14.2333Z" />
</svg>
