<svg width="28" height="28" viewBox="0 0 28 28" fill="none" xmlns="http://www.w3.org/2000/svg">
<path d="M6.22327 5.30248C7.4078 4.24251 8.81019 3.42098 10.355 2.91333C11.2101 3.98168 12.5253 4.66591 14.0002 4.66591C15.4751 4.66591 16.7901 3.98168 17.6454 2.91333C19.1902 3.42098 20.5925 4.24251 21.777 5.30248C21.2807 6.57658 21.3462 8.05628 22.0831 9.33258C22.8204 10.6096 24.0701 11.4063 25.4225 11.613C25.5827 12.3833 25.6668 13.1814 25.6668 13.9993C25.6668 14.817 25.5827 15.6152 25.4225 16.3854C24.0701 16.5922 22.8204 17.3889 22.0831 18.6659C21.3462 19.9422 21.2807 21.4219 21.777 22.6959C20.5925 23.756 19.1902 24.5775 17.6454 25.0852C16.7901 24.0168 15.4751 23.3326 14.0002 23.3326C12.5253 23.3326 11.2101 24.0168 10.355 25.0852C8.81019 24.5775 7.4078 23.756 6.22327 22.6959C6.7196 21.4219 6.65413 19.9422 5.91726 18.6659C5.17996 17.3889 3.93022 16.5922 2.57774 16.3854C2.41764 15.6152 2.3335 14.817 2.3335 13.9993C2.3335 13.1814 2.41764 12.3833 2.57774 11.613C3.93022 11.4063 5.17996 10.6096 5.91726 9.33258C6.65413 8.05628 6.7196 6.57658 6.22327 5.30248ZM15.7502 17.0304C17.4242 16.0638 17.9977 13.9233 17.0313 12.2493C16.0647 10.5752 13.9242 10.0016 12.2502 10.9681C10.5761 11.9346 10.0026 14.0752 10.9691 15.7493C11.9356 17.4233 14.0761 17.9968 15.7502 17.0304Z" />
</svg>
