<svg width="24" height="25" viewBox="0 0 24 25" fill="none" xmlns="http://www.w3.org/2000/svg">
<path d="M12 9.55911V7.00011C12.0003 6.80249 12.0591 6.60938 12.169 6.44513C12.2789 6.28087 12.435 6.15282 12.6175 6.07711C12.8 6.0014 13.0009 5.98141 13.1948 6.01967C13.3887 6.05793 13.5669 6.15273 13.707 6.29211L20 12.5001L13.707 18.7071C13.6143 18.8003 13.5042 18.8742 13.3829 18.9247C13.2615 18.9752 13.1314 19.0011 13 19.0011C12.8686 19.0011 12.7385 18.9752 12.6171 18.9247C12.4958 18.8742 12.3857 18.8003 12.293 18.7071C12.2001 18.6143 12.1264 18.5041 12.0761 18.3828C12.0258 18.2615 12 18.1314 12 18.0001V15.5111C9.25 15.5791 6.245 16.0771 4 19.5001V18.5001C4 13.8671 7.5 10.0571 12 9.55911Z" />
</svg>
