<svg width="28" height="28" viewBox="0 0 28 28" fill="none" xmlns="http://www.w3.org/2000/svg">
<path d="M13.9997 25.6667C12.3858 25.6667 10.8691 25.3603 9.44967 24.7474C8.03023 24.1353 6.79551 23.3042 5.74551 22.2542C4.69551 21.2042 3.86445 19.9695 3.25234 18.55C2.63945 17.1306 2.33301 15.6139 2.33301 14C2.33301 12.3862 2.63945 10.8695 3.25234 9.45004C3.86445 8.0306 4.69551 6.79587 5.74551 5.74587C6.79551 4.69587 8.03023 3.86443 9.44967 3.25154C10.8691 2.63943 12.3858 2.33337 13.9997 2.33337C15.6136 2.33337 17.1302 2.63943 18.5497 3.25154C19.9691 3.86443 21.2038 4.69587 22.2538 5.74587C23.3038 6.79587 24.1349 8.0306 24.747 9.45004C25.3599 10.8695 25.6663 12.3862 25.6663 14C25.6663 15.6139 25.3599 17.1306 24.747 18.55C24.1349 19.9695 23.3038 21.2042 22.2538 22.2542C21.2038 23.3042 19.9691 24.1353 18.5497 24.7474C17.1302 25.3603 15.6136 25.6667 13.9997 25.6667ZM15.1663 23.2459C17.4802 22.9542 19.42 21.938 20.9857 20.1974C22.5506 18.4575 23.333 16.3917 23.333 14C23.333 11.6084 22.5506 9.54221 20.9857 7.80154C19.42 6.06165 17.4802 5.04587 15.1663 4.75421V23.2459Z" />
</svg>
