<svg width="40" height="40" viewBox="0 0 40 40" fill="none" xmlns="http://www.w3.org/2000/svg">
<rect x="1" y="1" width="38" height="38" rx="19" fill="black" fill-opacity="0.25"/>
<rect x="1" y="1" width="38" height="38" rx="19" stroke="white" stroke-width="2"/>
<g clip-path="url(#clip0_637_10169)">
<path d="M12 30C12 25.5817 15.5817 22 20 22C24.4183 22 28 25.5817 28 30H26C26 26.6863 23.3137 24 20 24C16.6863 24 14 26.6863 14 30H12ZM20 21C16.685 21 14 18.315 14 15C14 11.685 16.685 9 20 9C23.315 9 26 11.685 26 15C26 18.315 23.315 21 20 21ZM20 19C22.21 19 24 17.21 24 15C24 12.79 22.21 11 20 11C17.79 11 16 12.79 16 15C16 17.21 17.79 19 20 19Z" fill="white"/>
</g>
<defs>
<clipPath id="clip0_637_10169">
<rect width="24" height="24" fill="white" transform="translate(8 8)"/>
</clipPath>
</defs>
</svg>
