<svg width="23" height="24" viewBox="0 0 23 24" fill="none" xmlns="http://www.w3.org/2000/svg">
<g clip-path="url(#clip0_1066_12611)">
<path d="M11.4998 22C6.20711 22 1.9165 17.5228 1.9165 12C1.9165 6.47715 6.20711 2 11.4998 2C16.7925 2 21.0832 6.47715 21.0832 12C21.0832 17.5228 16.7925 22 11.4998 22ZM11.4998 20C15.734 20 19.1665 16.4183 19.1665 12C19.1665 7.58172 15.734 4 11.4998 4C7.26565 4 3.83317 7.58172 3.83317 12C3.83317 16.4183 7.26565 20 11.4998 20ZM12.4582 12H16.2915V14H10.5415V7H12.4582V12Z" />
</g>
<defs>
<clipPath id="clip0_1066_12611">
<rect width="23" height="24" />
</clipPath>
</defs>
</svg>
